<?xml version="1.0" standalone="no"?>
<!DOCTYPE svg PUBLIC "-//W3C//DTD SVG 20010904//EN"
 "http://www.w3.org/TR/2001/REC-SVG-20010904/DTD/svg10.dtd">
<svg version="1.0" xmlns="http://www.w3.org/2000/svg"
 width="144.000000pt" height="250.000000pt" viewBox="0 0 144.000000 250.000000"
 preserveAspectRatio="xMidYMid meet">

<g transform="translate(0.000000,250.000000) scale(0.100000,-0.100000)"
fill="#000000" stroke="none">
<path d="M456 2244 c-102 -32 -180 -106 -216 -201 -19 -52 -20 -77 -20 -908
l0 -855 340 0 340 0 0 264 0 263 48 7 c180 24 322 198 347 426 8 78 -17 206
-55 284 -18 37 -56 89 -83 117 -49 50 -152 109 -189 109 -11 0 -18 8 -18 20 0
15 -7 20 -25 20 -24 0 -25 2 -25 63 0 136 -30 224 -102 303 -80 87 -228 125
-342 88z m163 -280 c25 -21 31 -33 31 -65 0 -55 -34 -89 -90 -89 -56 0 -90 34
-90 89 0 32 6 44 31 65 17 15 43 26 59 26 16 0 42 -11 59 -26z m410 -338 c45
-24 118 -112 143 -174 19 -48 23 -76 23 -172 0 -105 -2 -120 -28 -174 -52
-112 -134 -184 -229 -201 l-38 -7 0 366 0 366 25 0 c15 0 25 6 25 15 0 16 21
11 79 -19z m-346 -642 c3 -3 -10 -31 -29 -62 -19 -32 -34 -60 -34 -64 0 -5 11
-8 25 -8 14 0 25 -2 25 -5 0 -13 -264 -337 -268 -327 -1 5 28 73 67 150 63
127 68 140 51 145 -19 5 -19 7 5 78 14 41 27 80 30 87 4 12 116 18 128 6z"/>
</g>
</svg>
